<svg width="187" height="106" viewBox="0 0 187 106" fill="none" xmlns="http://www.w3.org/2000/svg">
<path fill-rule="evenodd" clip-rule="evenodd" d="M39.3928 37.5239V42.0289C36.5055 42.0289 33.7364 43.1848 31.6947 45.2423C29.653 47.2997 28.506 50.0902 28.506 52.9999C28.506 55.9096 29.653 58.7001 31.6947 60.7576C33.7364 62.815 36.5055 63.9709 39.3928 63.9709V68.4759H25.2979V37.5239H39.3928ZM39.3928 63.9709L39.3928 42.0289C42.2801 42.0289 45.0492 43.1848 47.0909 45.2423C49.1325 47.2997 50.2795 50.0902 50.2795 52.9999C50.2795 55.9096 49.1325 58.7001 47.0909 60.7576C45.0492 62.8151 42.2801 63.9709 39.3928 63.9709ZM61.3452 44.7849H58.1896V60.1019H61.3452V44.7849ZM64.0452 51.7599C63.437 52.6757 63.1123 53.7529 63.1123 54.8549C63.1024 55.5858 63.2375 56.3112 63.5096 56.9888C63.7816 57.6664 64.1852 58.2824 64.6966 58.8007C65.208 59.319 65.817 59.7292 66.4878 60.0073C67.1586 60.2853 67.8777 60.4256 68.603 60.4199C69.6965 60.4262 70.7673 60.1052 71.6795 59.4975C72.5918 58.8899 73.3045 58.023 73.7273 57.0067C74.1502 55.9904 74.264 54.8704 74.0545 53.7888C73.845 52.7072 73.3216 51.7127 72.5505 50.9312C71.7795 50.1498 70.7956 49.6166 69.7235 49.3993C68.6515 49.1819 67.5395 49.2903 66.5286 49.7105C65.5177 50.1308 64.6534 50.844 64.0452 51.7599ZM70.5878 53.53C70.8587 53.9189 71.0098 54.3798 71.0223 54.8549H71.0012C71.0186 55.1781 70.9697 55.5014 70.8575 55.8046C70.7453 56.1079 70.5723 56.3845 70.3492 56.6173C70.1261 56.8501 69.8577 57.034 69.5609 57.1576C69.264 57.2811 68.9451 57.3416 68.624 57.3353C68.1524 57.3351 67.6913 57.1948 67.2984 56.932C66.9055 56.6691 66.5982 56.2954 66.415 55.8575C66.2318 55.4195 66.1807 54.9369 66.2683 54.4699C66.3558 54.0029 66.578 53.5723 66.9071 53.2319C67.2363 52.8915 67.6577 52.6565 68.1186 52.5561C68.5796 52.4558 69.0597 52.4947 69.4989 52.6679C69.9381 52.8411 70.3168 53.141 70.5878 53.53ZM86.5794 49.6079V59.5825C86.5794 63.1017 83.8445 64.5963 81.0781 64.5963C80.1024 64.677 79.1236 64.4816 78.252 64.0321C77.3805 63.5827 76.6507 62.897 76.1449 62.0523L78.8061 60.5047C79.0218 60.9428 79.3648 61.3043 79.7895 61.541C80.2142 61.7778 80.7004 61.8784 81.1833 61.8297C81.491 61.8679 81.8032 61.8371 82.0976 61.7395C82.3921 61.6419 82.6615 61.48 82.8866 61.2653C83.1118 61.0506 83.287 60.7884 83.3999 60.4975C83.5127 60.2066 83.5604 59.8941 83.5395 59.5825V58.6179C83.1723 59.0665 82.7063 59.4228 82.1787 59.6583C81.651 59.8938 81.0761 60.0021 80.4996 59.9747C79.1047 59.9747 77.767 59.4163 76.7807 58.4223C75.7944 57.4284 75.2403 56.0803 75.2403 54.6747C75.2403 53.269 75.7944 51.9209 76.7807 50.927C77.767 49.9331 79.1047 49.3747 80.4996 49.3747C81.0761 49.3472 81.651 49.4555 82.1787 49.691C82.7063 49.9266 83.1723 50.2828 83.5395 50.7315V49.6715L86.5794 49.6079ZM83.5395 54.6429C83.5605 54.1357 83.4304 53.6339 83.1661 53.2018C82.9018 52.7697 82.5152 52.4272 82.0562 52.2183C81.5972 52.0094 81.0866 51.9437 80.5902 52.0295C80.0938 52.1154 79.6342 52.3489 79.2705 52.7001C78.9069 53.0513 78.6558 53.5041 78.5495 54.0003C78.4433 54.4964 78.4868 55.0133 78.6744 55.4843C78.8619 55.9554 79.1851 56.3591 79.6022 56.6436C80.0193 56.9282 80.5113 57.0804 81.015 57.0809C81.3437 57.1047 81.6736 57.0588 81.9836 56.9462C82.2936 56.8336 82.5767 56.6566 82.8146 56.4269C83.0525 56.1971 83.2399 55.9196 83.3648 55.6123C83.4897 55.305 83.5492 54.9748 83.5395 54.6429ZM89.2883 51.762C88.6811 52.6774 88.3569 53.7537 88.3569 54.8549C88.3485 55.5871 88.4852 56.3137 88.7591 56.992C89.033 57.6704 89.4385 58.2868 89.9518 58.8051C90.4652 59.3234 91.0761 59.7332 91.7487 60.0105C92.4213 60.2878 93.142 60.427 93.8687 60.4199C94.9613 60.4219 96.03 60.0973 96.9396 59.4871C97.8491 58.8769 98.5585 58.0085 98.9781 56.9918C99.3977 55.9752 99.5085 54.8559 99.2967 53.7757C99.0848 52.6955 98.5597 51.7029 97.7878 50.9236C97.0159 50.1442 96.0319 49.6132 94.9604 49.3976C93.8889 49.182 92.778 49.2916 91.7684 49.7125C90.7587 50.1333 89.8956 50.8466 89.2883 51.762ZM95.8317 53.5288C96.1031 53.918 96.2545 54.3793 96.2669 54.8549H96.2564C96.2738 55.178 96.2249 55.5013 96.1127 55.8046C96.0005 56.1078 95.8275 56.3845 95.6044 56.6173C95.3813 56.8501 95.1129 57.034 94.8161 57.1575C94.5192 57.2811 94.2003 57.3416 93.8792 57.3353C93.4072 57.3372 92.945 57.1987 92.5508 56.9371C92.1565 56.6755 91.8476 56.3025 91.6628 55.8648C91.4779 55.427 91.4254 54.9441 91.5117 54.4764C91.5981 54.0087 91.8195 53.5771 92.1482 53.2357C92.4768 52.8942 92.8982 52.6581 93.3595 52.557C93.8207 52.4558 94.3013 52.494 94.7411 52.6669C95.1809 52.8398 95.5602 53.1396 95.8317 53.5288ZM100.843 46.7989C100.843 46.4257 100.952 46.0609 101.158 45.7506C101.364 45.4403 101.656 45.1985 101.998 45.0557C102.341 44.9129 102.717 44.8755 103.08 44.9483C103.443 45.0211 103.777 45.2008 104.039 45.4647C104.301 45.7286 104.479 46.0647 104.551 46.4308C104.623 46.7968 104.586 47.1761 104.445 47.5209C104.303 47.8657 104.063 48.1603 103.755 48.3677C103.447 48.575 103.085 48.6857 102.715 48.6857C102.22 48.6801 101.747 48.4796 101.397 48.1269C101.047 47.7743 100.848 47.2976 100.843 46.7989ZM101.148 49.6079H104.303V60.1019H101.148V49.6079ZM117.509 56.9089C117.743 56.2509 117.844 55.5528 117.809 54.8549C117.84 54.1596 117.735 53.4649 117.5 52.8106C117.264 52.1562 116.903 51.5549 116.438 51.0411C115.972 50.5273 115.41 50.111 114.784 49.816C114.159 49.521 113.482 49.353 112.792 49.3217C112.205 49.2802 111.616 49.3731 111.069 49.5933C110.523 49.8136 110.033 50.1556 109.636 50.5937V49.6079H106.481V64.3207H109.636V59.1373C110.032 59.5767 110.522 59.9203 111.068 60.1424C111.615 60.3644 112.204 60.4593 112.792 60.4199C113.484 60.3887 114.164 60.2197 114.792 59.9227C115.42 59.6257 115.983 59.2065 116.449 58.6893C116.916 58.172 117.276 57.567 117.509 56.9089ZM114.204 53.4818C114.485 53.8849 114.641 54.3626 114.654 54.8549C114.678 55.1917 114.631 55.5297 114.516 55.847C114.401 56.1642 114.221 56.4534 113.988 56.6956C113.754 56.9378 113.473 57.1275 113.162 57.2524C112.85 57.3773 112.516 57.4344 112.182 57.4201C111.693 57.422 111.215 57.2786 110.806 57.0077C110.398 56.7368 110.079 56.3505 109.887 55.8973C109.696 55.4441 109.642 54.9441 109.732 54.4599C109.821 53.9758 110.051 53.5291 110.391 53.1758C110.731 52.8225 111.168 52.5783 111.645 52.4738C112.123 52.3694 112.621 52.4093 113.076 52.5886C113.531 52.7679 113.923 53.0786 114.204 53.4818ZM127.413 56.9537C127.413 59.3705 125.309 60.3987 123.079 60.3987C122.169 60.4812 121.256 60.2869 120.457 59.841C119.659 59.395 119.011 58.7179 118.598 57.8971L121.312 56.3495C121.419 56.7277 121.652 57.0573 121.972 57.283C122.292 57.5088 122.679 57.617 123.068 57.5897C123.815 57.5897 124.194 57.3565 124.194 56.9325C124.194 56.516 123.528 56.3295 122.677 56.091C121.166 55.6679 119.071 55.0812 119.071 52.7561C119.071 50.4665 120.986 49.3217 123.153 49.3217C123.976 49.2845 124.794 49.4728 125.52 49.8666C126.246 50.2604 126.853 50.845 127.276 51.5583L124.562 52.9999C124.442 52.7264 124.246 52.4938 123.998 52.3302C123.75 52.1665 123.46 52.0788 123.163 52.0777C122.616 52.0777 122.29 52.2897 122.29 52.6607C122.29 53.0935 122.947 53.2693 123.791 53.495C125.302 53.8993 127.413 54.4637 127.413 56.9537ZM138.846 60.1019V49.6079H135.733V55.3849C135.733 56.8265 134.933 57.5049 133.797 57.5049C133.548 57.52 133.299 57.4803 133.066 57.3887C132.833 57.2971 132.623 57.1557 132.45 56.9742C132.277 56.7928 132.145 56.5757 132.064 56.3379C131.982 56.1001 131.953 55.8473 131.978 55.5969V49.6079H128.822V56.0739C128.822 58.9041 130.621 60.4199 132.724 60.4199C133.286 60.452 133.846 60.3508 134.362 60.1243C134.877 59.8978 135.332 59.5525 135.691 59.1161V60.1019H138.846ZM156.728 53.657V60.1018H153.572V53.9326C153.572 52.8726 153.078 52.2154 152.079 52.2154C151.079 52.2154 150.448 52.9468 150.448 54.187V60.1018H147.293V53.9326C147.293 52.8726 146.798 52.2154 145.799 52.2154C144.8 52.2154 144.169 52.9468 144.169 54.187V60.1018H141.013V49.6078H144.169V50.5724C144.495 50.1463 144.922 49.8088 145.411 49.5904C145.899 49.3721 146.434 49.2797 146.967 49.3216C147.5 49.2936 148.032 49.4059 148.51 49.6475C148.987 49.889 149.394 50.2516 149.691 50.6996C150.038 50.2316 150.496 49.8597 151.024 49.6187C151.552 49.3777 152.132 49.2755 152.71 49.3216C155.171 49.3216 156.728 51.0388 156.728 53.657ZM161.693 47.2123C161.693 48.5002 160.657 49.5443 159.379 49.5443C158.101 49.5443 157.065 48.5002 157.065 47.2123C157.065 45.9243 158.101 44.8802 159.379 44.8802C160.657 44.8802 161.693 45.9243 161.693 47.2123Z" fill="white" fill-opacity="0.45"/>
</svg>
