<svg width="187" height="105" viewBox="0 0 187 105" fill="none" xmlns="http://www.w3.org/2000/svg">
<path d="M64.7007 46.4731H68.0772V60.1231H64.7007V46.4731ZM69.4235 54.9886C69.4235 51.6076 71.5273 49.5811 74.6829 49.5811C77.8384 49.5811 79.9422 51.6076 79.9422 54.9886C79.9422 58.3696 77.9121 60.4171 74.6829 60.4171C71.4536 60.4171 69.4235 58.4431 69.4235 54.9886ZM76.5972 54.9886C76.5972 53.1301 75.8715 52.0381 74.7144 52.0381C73.5574 52.0381 72.8421 53.0881 72.8421 54.9886C72.8421 56.8891 73.5574 57.9286 74.7144 57.9286C75.8715 57.9286 76.6183 56.8891 76.6183 54.9991L76.5972 54.9886ZM81.2885 60.8266H84.5493C84.6978 61.177 84.957 61.4693 85.2875 61.6589C85.618 61.8485 86.0015 61.9249 86.3796 61.8766C87.6734 61.8766 88.3465 61.1836 88.3465 60.1546V58.2646H88.3571C88.0784 58.8531 87.6278 59.3436 87.0646 59.6716C86.5013 59.9996 85.8518 60.1496 85.2015 60.1021C82.7296 60.1021 81.0887 58.2226 81.0887 54.9886C81.0887 51.7546 82.656 49.7386 85.2961 49.7386C85.9631 49.7029 86.6248 49.8747 87.19 50.2301C87.7551 50.5855 88.1959 51.1071 88.4517 51.7231H88.3571V49.8226H91.702V60.0496C91.702 62.5171 89.5141 64.0606 86.2954 64.0606C83.3712 64.0501 81.4989 62.7166 81.3096 60.8371L81.2885 60.8266ZM88.3571 54.9886C88.3571 53.3401 87.5997 52.3006 86.4006 52.3006C85.2015 52.3006 84.4652 53.3506 84.4652 54.9886C84.4652 56.6266 85.191 57.5926 86.4006 57.5926C87.6102 57.5926 88.3571 56.7001 88.3571 54.9886ZM93.0378 54.9886C93.0378 51.6076 95.1416 49.5811 98.2972 49.5811C101.453 49.5811 103.556 51.6076 103.556 54.9886C103.556 58.3696 101.516 60.4171 98.2972 60.4171C95.0785 60.4171 93.0589 58.4431 93.0589 54.9886H93.0378ZM100.212 54.9886C100.212 53.1301 99.4752 52.0381 98.3287 52.0381C97.1822 52.0381 96.4564 53.0881 96.4564 54.9886C96.4564 56.8891 97.1717 57.9286 98.3287 57.9286C99.4858 57.9286 100.233 56.8891 100.233 54.9991L100.212 54.9886ZM104.924 47.3341C104.909 46.9907 104.998 46.6509 105.178 46.3582C105.359 46.0655 105.623 45.8334 105.936 45.6917C106.25 45.5501 106.599 45.5053 106.938 45.5632C107.277 45.6211 107.592 45.779 107.84 46.0167C108.089 46.2543 108.261 46.5608 108.333 46.8967C108.406 47.2326 108.377 47.5825 108.249 47.9014C108.12 48.2204 107.9 48.4938 107.615 48.6865C107.329 48.8791 106.993 48.9823 106.649 48.9826C106.429 48.9882 106.21 48.9501 106.005 48.8705C105.8 48.7909 105.612 48.6715 105.454 48.5191C105.295 48.3667 105.169 48.1844 105.081 47.9828C104.994 47.7812 104.948 47.5642 104.945 47.3446L104.924 47.3341ZM104.924 49.8121H108.342V60.1651H104.976L104.924 49.8121ZM120.639 54.9886C120.639 58.3591 119.124 60.3121 116.547 60.3121C115.887 60.3527 115.231 60.1902 114.667 59.8466C114.102 59.503 113.657 58.9948 113.391 58.3906H113.328V63.4936H109.952V49.8436H113.307V51.6916H113.37C113.627 51.0755 114.068 50.5534 114.632 50.1964C115.197 49.8394 115.858 49.6649 116.526 49.6966C119.177 49.6756 120.702 51.6181 120.702 54.9991L120.639 54.9886ZM117.199 54.9886C117.199 53.3506 116.431 52.2901 115.243 52.2901C114.054 52.2901 113.307 53.3401 113.297 54.9886C113.286 56.6371 114.054 57.6766 115.243 57.6766C116.431 57.6766 117.262 56.7001 117.262 54.9991L117.199 54.9886ZM126.403 49.5706C129.232 49.5706 130.989 50.9041 131.01 53.0461H127.928C127.928 52.3006 127.308 51.8386 126.382 51.8386C125.456 51.8386 125.014 52.1956 125.014 52.7311C125.014 53.2666 125.404 53.4346 126.182 53.5921L128.349 54.0331C130.453 54.4741 131.294 55.3141 131.294 56.8786C131.294 58.9786 129.348 60.4066 126.456 60.4066C123.563 60.4066 121.68 59.0206 121.543 56.9101H124.815C124.909 57.6766 125.519 58.1281 126.508 58.1281C127.497 58.1281 127.96 57.8131 127.96 57.2566C127.96 56.7001 127.644 56.6056 126.834 56.4376L124.878 56.0281C122.848 55.5976 121.785 54.5371 121.785 52.9516C121.848 50.8936 123.615 49.5811 126.466 49.5811L126.403 49.5706ZM142.602 60.1546H139.33V58.2121H139.267C139.084 58.86 138.685 59.4263 138.136 59.8176C137.588 60.2089 136.922 60.4018 136.248 60.3646C135.74 60.3811 135.234 60.2901 134.763 60.0976C134.292 59.9051 133.868 59.6154 133.517 59.2475C133.167 58.8797 132.898 58.442 132.729 57.9631C132.559 57.4843 132.493 56.9751 132.535 56.4691V49.8226H135.912V55.7446C135.912 56.9626 136.553 57.6241 137.605 57.6241C137.852 57.6222 138.096 57.5675 138.319 57.4637C138.543 57.3599 138.742 57.2093 138.903 57.0222C139.063 56.8351 139.181 56.6158 139.25 56.3791C139.318 56.1424 139.335 55.8938 139.299 55.6501V49.8226H142.665L142.602 60.1546ZM144.232 49.8121H147.514V51.8071H147.587C147.769 51.168 148.157 50.6069 148.692 50.2118C149.227 49.8166 149.878 49.6095 150.543 49.6231C151.211 49.5651 151.876 49.7579 152.41 50.1637C152.943 50.5696 153.305 51.1593 153.425 51.8176H153.573C153.783 51.1558 154.206 50.5819 154.777 50.185C155.347 49.7882 156.033 49.5906 156.728 49.6231C157.19 49.6055 157.65 49.6855 158.079 49.8578C158.507 50.0301 158.895 50.2908 159.215 50.6228C159.536 50.9549 159.783 51.3508 159.94 51.7847C160.097 52.2186 160.16 52.6806 160.126 53.1406V60.1651H156.728V54.0016C156.728 52.9516 156.234 52.3636 155.277 52.3636C155.064 52.3601 154.854 52.4025 154.659 52.4878C154.465 52.5732 154.291 52.6995 154.151 52.858C154.01 53.0166 153.905 53.2037 153.843 53.4065C153.782 53.6094 153.765 53.8231 153.793 54.0331V60.1651H150.575V53.9701C150.575 52.9201 150.059 52.3636 149.134 52.3636C148.919 52.3619 148.707 52.406 148.511 52.493C148.315 52.58 148.14 52.7078 147.997 52.8679C147.855 53.028 147.748 53.2167 147.685 53.4213C147.621 53.6259 147.602 53.8416 147.629 54.0541V60.1651H144.253L144.232 49.8121Z" fill="white" fill-opacity="0.45"/>
<path d="M58.0209 47.3655C58.021 45.2757 57.3888 43.2345 56.2072 41.5094C55.0255 39.7843 53.3494 38.4557 51.3985 37.6976C49.4476 36.9395 47.3128 36.7873 45.2737 37.2608C43.2346 37.7343 41.3863 38.8116 39.971 40.3515H26.8438V68.0085H54.5603V55.083C55.6482 54.1117 56.5186 52.9223 57.1149 51.5925C57.7112 50.2628 58.0199 48.8224 58.0209 47.3655ZM52.688 47.3655C52.6901 48.3669 52.3945 49.3464 51.8387 50.1801C51.2828 51.0137 50.4917 51.664 49.5655 52.0487C48.6393 52.4334 47.6196 52.5351 46.6354 52.341C45.6512 52.1469 44.7468 51.6657 44.0367 50.9584C43.3266 50.251 42.8427 49.3492 42.6462 48.3672C42.4498 47.3852 42.5496 46.367 42.933 45.4416C43.3164 44.5163 43.9662 43.7252 44.8002 43.1686C45.6342 42.6121 46.6148 42.315 47.618 42.315C48.9608 42.315 50.2488 42.8467 51.1993 43.7936C52.1498 44.7404 52.6852 46.025 52.688 47.3655ZM49.2274 62.685H32.1767V45.675H37.3729C37.2725 46.233 37.2197 46.7985 37.2151 47.3655C37.2179 50.1188 38.3148 52.7585 40.2651 54.7054C42.2154 56.6522 44.8599 57.7472 47.618 57.75C48.1572 57.7471 48.6954 57.7015 49.2274 57.6135V62.685Z" fill="white" fill-opacity="0.45"/>
</svg>
