<svg width="186" height="105" viewBox="0 0 186 105" fill="none" xmlns="http://www.w3.org/2000/svg">
<path d="M43.3342 50.7893C42.9377 51.1896 42.6341 51.6728 42.4449 52.2044C42.2558 52.736 42.1857 53.3029 42.2398 53.8647L42.221 53.8458C42.2766 54.5072 42.1878 55.1727 41.9607 55.7961C41.7335 56.4194 41.3736 56.9855 40.906 57.4548C40.4383 57.9241 39.8743 58.2853 39.2532 58.5132C38.6321 58.7412 37.9689 58.8304 37.3099 58.7745L37.3288 58.7934C36.5405 58.7198 35.7488 58.892 35.0616 59.2864C34.3744 59.6809 33.8251 60.2785 33.4887 60.9977C33.1523 61.7169 33.0451 62.5228 33.1818 63.3053C33.3184 64.0879 33.6923 64.8092 34.2523 65.3707C34.8124 65.9323 35.5314 66.3068 36.3113 66.4432C37.0912 66.5797 37.8941 66.4714 38.6104 66.1331C39.3268 65.7949 39.9217 65.2431 40.3142 64.5531C40.7066 63.8631 40.8774 63.0684 40.8033 62.2773L40.8232 62.2962C40.7676 61.6349 40.8565 60.9693 41.0836 60.346C41.3107 59.7227 41.6707 59.1566 42.1383 58.6873C42.6059 58.218 43.17 57.8568 43.7911 57.6288C44.4122 57.4009 45.0753 57.3117 45.7343 57.3675L45.7144 57.3486C46.3584 57.4068 47.0065 57.3008 47.5987 57.0406C48.191 56.7804 48.7082 56.3744 49.1024 55.8602C49.4967 55.3459 49.7552 54.7401 49.8541 54.0989C49.9529 53.4577 49.8889 52.8019 49.6679 52.1921C49.447 51.5824 49.0762 51.0385 48.59 50.6108C48.1038 50.1832 47.5179 49.8856 46.8866 49.7457C46.2553 49.6058 45.599 49.6281 44.9786 49.8105C44.3581 49.993 43.7936 50.3296 43.3374 50.7893H43.3342Z" fill="white" fill-opacity="0.45"/>
<path d="M35.6162 56.3174L35.5963 56.2985C36.1564 56.3552 36.722 56.2862 37.2523 56.0965C37.7825 55.9069 38.2642 55.6014 38.6624 55.2021C39.0606 54.8028 39.3654 54.3196 39.5547 53.7876C39.7441 53.2556 39.8132 52.688 39.7572 52.1258L39.7771 52.1447C39.7215 51.4834 39.8103 50.8178 40.0375 50.1945C40.2646 49.5712 40.6245 49.0051 41.0922 48.5358C41.5598 48.0665 42.1238 47.7053 42.7449 47.4773C43.366 47.2494 44.0292 47.1602 44.6882 47.216L44.6683 47.1971C45.4567 47.2714 46.2486 47.0999 46.9362 46.7058C47.6238 46.3118 48.1736 45.7145 48.5105 44.9954C48.8474 44.2763 48.9551 43.4704 48.8188 42.6876C48.6826 41.9048 48.309 41.1833 47.7491 40.6214C47.1893 40.0595 46.4703 39.6846 45.6903 39.5478C44.9103 39.4111 44.1073 39.5192 43.3907 39.8573C42.6742 40.1954 42.079 40.7471 41.6864 41.4372C41.2938 42.1272 41.1228 42.9221 41.1969 43.7132L41.178 43.6933C41.2339 44.3547 41.1451 45.0203 40.9181 45.6437C40.691 46.2671 40.331 46.8333 39.8634 47.3026C39.3957 47.7719 38.8316 48.1332 38.2104 48.3611C37.5892 48.5889 36.926 48.678 36.267 48.622L36.2858 48.6419C35.7257 48.5853 35.1601 48.6543 34.6298 48.8439C34.0995 49.0335 33.6179 49.339 33.2197 49.7384C32.8215 50.1377 32.5167 50.6208 32.3274 51.1529C32.138 51.6849 32.0688 52.2525 32.1249 52.8146L32.106 52.7957C32.1615 53.457 32.0725 54.1225 31.8453 54.7457C31.6181 55.369 31.2581 55.935 30.7905 56.4042C30.323 56.8735 29.759 57.2347 29.138 57.4628C28.517 57.6908 27.8539 57.7801 27.1949 57.7244L27.2138 57.7433C26.4254 57.669 25.6335 57.8406 24.9459 58.2346C24.2583 58.6286 23.7085 59.226 23.3716 59.9451C23.0347 60.6642 22.927 61.4701 23.0633 62.2529C23.1995 63.0356 23.5731 63.7572 24.1329 64.3191C24.6928 64.881 25.4118 65.2559 26.1918 65.3926C26.9718 65.5293 27.7748 65.4213 28.4913 65.0832C29.2079 64.745 29.8031 64.1933 30.1957 63.5033C30.5883 62.8132 30.7592 62.0184 30.6852 61.2272L30.7051 61.2461C30.6495 60.5848 30.7383 59.9192 30.9655 59.2959C31.1926 58.6726 31.5525 58.1065 32.0202 57.6372C32.4878 57.1679 33.0518 56.8067 33.6729 56.5787C34.294 56.3508 34.9572 56.2616 35.6162 56.3174Z" fill="white" fill-opacity="0.45"/>
<path d="M28.6048 54.2102C29.0013 53.81 29.305 53.3268 29.4939 52.7951C29.6829 52.2635 29.7527 51.6966 29.6981 51.1348L29.718 51.1537C29.6623 50.4922 29.7512 49.8264 29.9785 49.2029C30.2057 48.5794 30.5659 48.0132 31.0337 47.5439C31.5016 47.0746 32.0659 46.7134 32.6873 46.4856C33.3086 46.2578 33.972 46.1688 34.6312 46.225L34.6113 46.2061C35.3994 46.2802 36.191 46.1085 36.8783 45.7145C37.5656 45.3205 38.115 44.7234 38.4517 44.0045C38.7885 43.2856 38.896 42.48 38.7598 41.6975C38.6235 40.915 38.2501 40.1937 37.6904 39.632C37.1307 39.0704 36.412 38.6956 35.6324 38.5589C34.8527 38.4221 34.0499 38.5301 33.3336 38.868C32.6173 39.2059 32.0223 39.7573 31.6297 40.4471C31.2371 41.1368 31.066 41.9313 31.1399 42.7222L31.121 42.7033C31.1766 43.3646 31.0878 44.0302 30.8607 44.6535C30.6335 45.2768 30.2736 45.8429 29.806 46.3122C29.3383 46.7815 28.7743 47.1427 28.1532 47.3707C27.5321 47.5986 26.8689 47.6878 26.2099 47.632L26.2288 47.6509C25.5849 47.5929 24.9368 47.699 24.3447 47.9594C23.7525 48.2197 23.2354 48.6258 22.8413 49.1401C22.4471 49.6543 22.1887 50.2601 22.09 50.9013C21.9912 51.5425 22.0554 52.1983 22.2764 52.808C22.4975 53.4177 22.8683 53.9615 23.3545 54.3891C23.8407 54.8167 24.4266 55.1142 25.0579 55.254C25.6892 55.3938 26.3454 55.3715 26.9658 55.189C27.5862 55.0066 28.1507 54.6699 28.6069 54.2102H28.6048Z" fill="white" fill-opacity="0.45"/>
<path d="M61.0137 43.7375H64.121V58.9132H61.0137V43.7375Z" fill="white" fill-opacity="0.45"/>
<path d="M65.881 53.7167C65.8767 52.6261 66.1949 51.5588 66.7955 50.6499C67.396 49.741 68.2519 49.0314 69.2546 48.611C70.2573 48.1907 71.3618 48.0784 72.4281 48.2885C73.4945 48.4986 74.4747 49.0215 75.2446 49.7912C76.0146 50.5608 76.5396 51.5424 76.7532 52.6117C76.9668 53.681 76.8594 54.7899 76.4445 55.7979C76.0297 56.8059 75.3261 57.6676 74.4228 58.274C73.5196 58.8803 72.4574 59.204 71.3707 59.204C70.6493 59.2123 69.9336 59.0761 69.2653 58.8036C68.597 58.531 67.9895 58.1275 67.4784 57.6166C66.9672 57.1057 66.5627 56.4976 66.2885 55.828C66.0142 55.1584 65.8757 54.4407 65.881 53.7167ZM73.753 53.7167C73.74 53.2466 73.5893 52.7908 73.3196 52.4062C73.0499 52.0217 72.6733 51.7254 72.2367 51.5545C71.8002 51.3836 71.3231 51.3456 70.8652 51.4453C70.4073 51.5451 69.9888 51.778 69.6621 52.1151C69.3353 52.4522 69.1149 52.8785 69.0283 53.3407C68.9416 53.8028 68.9927 54.2803 69.175 54.7135C69.3573 55.1468 69.6629 55.5164 70.0534 55.7763C70.4439 56.0362 70.9021 56.1748 71.3707 56.1748C71.6916 56.1834 72.0108 56.1251 72.3082 56.0038C72.6055 55.8824 72.8746 55.7005 73.0984 55.4695C73.3223 55.2386 73.496 54.9636 73.6086 54.6619C73.7213 54.3602 73.7704 54.0384 73.753 53.7167Z" fill="white" fill-opacity="0.45"/>
<path d="M89.2448 48.5191V58.3891C89.2448 61.8814 86.5309 63.3577 83.7761 63.3577C82.8062 63.4306 81.835 63.2339 80.969 62.7894C80.1031 62.3449 79.3759 61.6697 78.8671 60.8377L81.5183 59.2995C81.7321 59.7331 82.0729 60.0909 82.4949 60.3249C82.9169 60.5589 83.4 60.658 83.8797 60.6088C84.1862 60.6514 84.4984 60.6244 84.7931 60.5296C85.0878 60.4347 85.3575 60.2747 85.5822 60.0611C85.8069 59.8476 85.981 59.5861 86.0914 59.2959C86.2018 59.0058 86.2458 58.6944 86.2201 58.3849V57.4347C85.8563 57.8815 85.3931 58.2365 84.8678 58.4712C84.3425 58.7058 83.7697 58.8137 83.1954 58.786C81.8288 58.7428 80.5326 58.1675 79.5811 57.1821C78.6297 56.1966 78.0977 54.8783 78.0977 53.5061C78.0977 52.1339 78.6297 50.8156 79.5811 49.8301C80.5326 48.8447 81.8288 48.2694 83.1954 48.2262C83.7697 48.1985 84.3425 48.3063 84.8678 48.541C85.3931 48.7757 85.8563 49.1307 86.2201 49.5775V48.517L89.2448 48.5191ZM86.2212 53.5077C86.2421 53.0051 86.1126 52.5077 85.8494 52.0796C85.5863 51.6515 85.2015 51.3122 84.7446 51.1055C84.2877 50.8987 83.7796 50.8338 83.2857 50.9193C82.7917 51.0048 82.3346 51.2367 81.9731 51.5851C81.6116 51.9335 81.3622 52.3825 81.2572 52.8743C81.1521 53.3662 81.1961 53.8783 81.3835 54.3449C81.5709 54.8114 81.8931 55.211 82.3087 55.4922C82.7243 55.7733 83.2142 55.9233 83.7154 55.9227C84.0419 55.9455 84.3695 55.8995 84.6772 55.7876C84.9849 55.6757 85.2658 55.5003 85.5019 55.2728C85.7379 55.0453 85.9239 54.7707 86.0478 54.4667C86.1717 54.1627 86.2307 53.836 86.2212 53.5077Z" fill="white" fill-opacity="0.45"/>
<path d="M91.005 53.7167C91.0007 52.6261 91.3189 51.5588 91.9195 50.6499C92.5201 49.741 93.3759 49.0314 94.3786 48.611C95.3813 48.1907 96.4858 48.0784 97.5521 48.2885C98.6185 48.4986 99.5987 49.0215 100.369 49.7912C101.139 50.5608 101.664 51.5424 101.877 52.6117C102.091 53.681 101.983 54.7899 101.569 55.7979C101.154 56.8059 100.45 57.6676 99.5469 58.274C98.6436 58.8803 97.5814 59.204 96.4947 59.204C95.7734 59.2123 95.0576 59.0761 94.3893 58.8036C93.721 58.531 93.1135 58.1275 92.6024 57.6166C92.0913 57.1057 91.6868 56.4976 91.4125 55.828C91.1382 55.1584 90.9997 54.4407 91.005 53.7167ZM98.877 53.7167C98.864 53.2466 98.7133 52.7908 98.4436 52.4062C98.1739 52.0217 97.7973 51.7254 97.3607 51.5545C96.9242 51.3836 96.4471 51.3456 95.9892 51.4453C95.5313 51.5451 95.1128 51.778 94.7861 52.1151C94.4594 52.4522 94.2389 52.8785 94.1523 53.3407C94.0657 53.8028 94.1167 54.2803 94.299 54.7135C94.4814 55.1468 94.7869 55.5164 95.1774 55.7763C95.5679 56.0362 96.0261 56.1748 96.4947 56.1748C96.8156 56.1834 97.1348 56.1251 97.4322 56.0038C97.7295 55.8824 97.9986 55.7005 98.2225 55.4695C98.4463 55.2386 98.62 54.9636 98.7327 54.6619C98.8453 54.3602 98.8945 54.0384 98.877 53.7167Z" fill="white" fill-opacity="0.45"/>
<path d="M103.434 45.7334C103.434 45.3633 103.543 45.0016 103.748 44.6939C103.953 44.3862 104.244 44.1464 104.585 44.0047C104.925 43.8631 105.3 43.8261 105.662 43.8983C106.023 43.9705 106.356 44.1487 106.616 44.4103C106.877 44.672 107.055 45.0054 107.127 45.3684C107.199 45.7313 107.162 46.1075 107.02 46.4494C106.879 46.7913 106.64 47.0836 106.334 47.2892C106.027 47.4948 105.667 47.6045 105.298 47.6045C104.805 47.5996 104.334 47.4009 103.985 47.051C103.636 46.7012 103.438 46.2281 103.434 45.7334ZM103.747 48.5191H106.856V58.9141H103.743L103.747 48.5191Z" fill="white" fill-opacity="0.45"/>
<path d="M120.272 53.7166C120.308 54.4036 120.209 55.0909 119.979 55.7391C119.749 56.3872 119.394 56.9834 118.934 57.4934C118.474 58.0033 117.918 58.417 117.298 58.7105C116.678 59.0041 116.006 59.1717 115.322 59.2039C114.746 59.2354 114.17 59.1379 113.637 58.9185C113.103 58.6992 112.625 58.3633 112.236 57.9355V63.071H109.129V48.5191H112.236V49.4956C112.625 49.068 113.103 48.7324 113.637 48.5132C114.17 48.2941 114.746 48.1967 115.322 48.2282C116.007 48.2602 116.678 48.4278 117.298 48.7214C117.918 49.0149 118.475 49.4287 118.935 49.9388C119.395 50.4489 119.75 51.0452 119.98 51.6936C120.209 52.3419 120.309 53.0294 120.272 53.7166ZM117.165 53.7166C117.153 53.2301 116.998 52.758 116.72 52.3594C116.442 51.9608 116.053 51.6533 115.601 51.4756C115.15 51.2979 114.656 51.2577 114.182 51.3601C113.708 51.4625 113.275 51.703 112.936 52.0514C112.598 52.3998 112.369 52.8407 112.279 53.3189C112.189 53.797 112.241 54.2913 112.43 54.7397C112.618 55.1881 112.934 55.5708 113.338 55.8398C113.742 56.1089 114.216 56.2524 114.701 56.2523C115.034 56.2672 115.366 56.2113 115.676 56.0882C115.986 55.9652 116.267 55.7778 116.499 55.5384C116.732 55.2989 116.911 55.0129 117.026 54.6989C117.141 54.3849 117.188 54.0502 117.165 53.7166Z" fill="white" fill-opacity="0.45"/>
<path d="M129.862 55.7946C129.862 58.1855 127.791 59.204 125.554 59.204C124.651 59.2862 123.743 59.0943 122.949 58.6533C122.155 58.2123 121.511 57.5424 121.101 56.7302L123.793 55.1919C123.901 55.5674 124.135 55.8939 124.455 56.1171C124.775 56.3404 125.162 56.4467 125.55 56.4183C126.295 56.4183 126.669 56.1894 126.669 55.7747C126.669 54.6302 121.572 55.2339 121.572 51.6377C121.572 49.3708 123.479 48.2283 125.633 48.2283C126.443 48.2026 127.245 48.3954 127.955 48.7866C128.665 49.1777 129.258 49.7529 129.671 50.4522L127.02 51.8865C126.904 51.6143 126.71 51.3824 126.464 51.2197C126.217 51.0571 125.928 50.9709 125.633 50.972C125.094 50.972 124.762 51.182 124.762 51.5537C124.767 52.7391 129.862 51.9485 129.862 55.7946Z" fill="white" fill-opacity="0.45"/>
<path d="M141.212 48.5193V58.9143H138.104V57.9367C137.746 58.3681 137.291 58.708 136.776 58.9285C136.261 59.1489 135.702 59.2438 135.144 59.2051C133.051 59.2051 131.272 57.7089 131.272 54.9001V48.5193H134.38V54.4434C134.354 54.691 134.382 54.9412 134.462 55.1768C134.542 55.4124 134.673 55.6276 134.844 55.8075C135.016 55.9874 135.224 56.1276 135.455 56.2184C135.686 56.3093 135.934 56.3485 136.181 56.3334C137.321 56.3334 138.108 55.6687 138.108 54.1924V48.5224L141.212 48.5193Z" fill="white" fill-opacity="0.45"/>
<path d="M159.03 52.5313V58.9132H155.923V52.8012C155.923 51.7617 155.426 51.097 154.432 51.097C153.396 51.097 152.815 51.8247 152.815 53.0511V58.9132H149.709V52.8012C149.709 51.7617 149.212 51.097 148.217 51.097C147.181 51.097 146.601 51.8247 146.601 53.0511V58.9132H143.494V48.5182H146.601V49.4737C146.924 49.0498 147.346 48.7137 147.831 48.4959C148.316 48.2782 148.848 48.1859 149.377 48.2274C149.909 48.2013 150.438 48.3139 150.914 48.5542C151.389 48.7945 151.794 49.1544 152.09 49.5987C152.434 49.1339 152.891 48.7643 153.416 48.5245C153.941 48.2846 154.519 48.1824 155.094 48.2274C157.472 48.2284 159.03 49.9326 159.03 52.5313Z" fill="white" fill-opacity="0.45"/>
<path d="M161.658 48.4551C162.932 48.4551 163.964 47.419 163.964 46.1409C163.964 44.8628 162.932 43.8267 161.658 43.8267C160.385 43.8267 159.353 44.8628 159.353 46.1409C159.353 47.419 160.385 48.4551 161.658 48.4551Z" fill="white" fill-opacity="0.45"/>
</svg>
