<svg width="17" height="16" viewBox="0 0 17 16" fill="none" xmlns="http://www.w3.org/2000/svg">
<g clip-path="url(#clip0_1_1265)">
<path d="M8.66406 2.09288C10.8016 2.09288 11.0547 2.10184 11.8953 2.13766C12.6766 2.17049 13.0984 2.29586 13.3797 2.40034C13.7516 2.53765 14.0203 2.70481 14.2984 2.97047C14.5797 3.23912 14.7516 3.49285 14.8953 3.84806C15.0047 4.11671 15.1359 4.52267 15.1703 5.26594C15.2078 6.07189 15.2172 6.31367 15.2172 8.35243C15.2172 10.3942 15.2078 10.636 15.1703 11.4389C15.1359 12.1852 15.0047 12.5881 14.8953 12.8568C14.7516 13.212 14.5766 13.4687 14.2984 13.7344C14.0172 14.003 13.7516 14.1672 13.3797 14.3045C13.0984 14.409 12.6734 14.5344 11.8953 14.5672C11.0516 14.603 10.7984 14.612 8.66406 14.612C6.52656 14.612 6.27344 14.603 5.43281 14.5672C4.65156 14.5344 4.22969 14.409 3.94844 14.3045C3.57656 14.1672 3.30781 14 3.02969 13.7344C2.74844 13.4657 2.57656 13.212 2.43281 12.8568C2.32344 12.5881 2.19219 12.1822 2.15781 11.4389C2.12031 10.633 2.11094 10.3912 2.11094 8.35243C2.11094 6.31069 2.12031 6.0689 2.15781 5.26594C2.19219 4.51969 2.32344 4.11671 2.43281 3.84806C2.57656 3.49285 2.75156 3.23614 3.02969 2.97047C3.31094 2.70182 3.57656 2.53765 3.94844 2.40034C4.22969 2.29586 4.65469 2.17049 5.43281 2.13766C6.27344 2.10184 6.52656 2.09288 8.66406 2.09288ZM8.66406 0.716797C6.49219 0.716797 6.22031 0.725752 5.36719 0.761572C4.51719 0.797392 3.93281 0.928732 3.42656 1.11679C2.89844 1.3138 2.45156 1.57349 2.00781 2.00035C1.56094 2.42422 1.28906 2.85107 1.08281 3.35255C0.885937 3.83911 0.748438 4.39432 0.710938 5.20624C0.673438 6.02413 0.664062 6.28382 0.664062 8.3584C0.664062 10.433 0.673438 10.6927 0.710938 11.5076C0.748438 12.3195 0.885937 12.8777 1.08281 13.3613C1.28906 13.8657 1.56094 14.2926 2.00781 14.7164C2.45156 15.1403 2.89844 15.403 3.42344 15.597C3.93281 15.7851 4.51406 15.9164 5.36406 15.9522C6.21719 15.9881 6.48906 15.997 8.66094 15.997C10.8328 15.997 11.1047 15.9881 11.9578 15.9522C12.8078 15.9164 13.3922 15.7851 13.8984 15.597C14.4234 15.403 14.8703 15.1403 15.3141 14.7164C15.7578 14.2926 16.0328 13.8657 16.2359 13.3642C16.4328 12.8777 16.5703 12.3225 16.6078 11.5106C16.6453 10.6957 16.6547 10.436 16.6547 8.36138C16.6547 6.28681 16.6453 6.02711 16.6078 5.21221C16.5703 4.40029 16.4328 3.84209 16.2359 3.35852C16.0391 2.85107 15.7672 2.42422 15.3203 2.00035C14.8766 1.57648 14.4297 1.3138 13.9047 1.11977C13.3953 0.931717 12.8141 0.800377 11.9641 0.764557C11.1078 0.725752 10.8359 0.716797 8.66406 0.716797Z" fill="white"/>
<path d="M8.66406 4.43311C6.39531 4.43311 4.55469 6.19127 4.55469 8.35838C4.55469 10.5255 6.39531 12.2837 8.66406 12.2837C10.9328 12.2837 12.7734 10.5255 12.7734 8.35838C12.7734 6.19127 10.9328 4.43311 8.66406 4.43311ZM8.66406 10.9046C7.19219 10.9046 5.99844 9.76432 5.99844 8.35838C5.99844 6.95245 7.19219 5.81218 8.66406 5.81218C10.1359 5.81218 11.3297 6.95245 11.3297 8.35838C11.3297 9.76432 10.1359 10.9046 8.66406 10.9046Z" fill="white"/>
<path d="M13.8953 4.27791C13.8953 4.78536 13.4641 5.1943 12.9359 5.1943C12.4047 5.1943 11.9766 4.78237 11.9766 4.27791C11.9766 3.77046 12.4078 3.36151 12.9359 3.36151C13.4641 3.36151 13.8953 3.77344 13.8953 4.27791Z" fill="white"/>
</g>
<defs>
<clipPath id="clip0_1_1265">
<rect width="16" height="15.2832" fill="white" transform="translate(0.664062 0.716797)"/>
</clipPath>
</defs>
</svg>
