<svg width="16" height="16" viewBox="0 0 16 16" fill="none" xmlns="http://www.w3.org/2000/svg">
<g clip-path="url(#clip0_1_1263)">
<path d="M5.03344 14.5672C11.0697 14.5672 14.3722 9.78914 14.3722 5.64685C14.3722 5.51253 14.3691 5.37522 14.3628 5.24089C15.0052 4.79711 15.5597 4.24742 16 3.61765C15.4017 3.87193 14.7664 4.03799 14.1159 4.11018C14.8009 3.71802 15.3137 3.10195 15.5594 2.37619C14.915 2.74094 14.2104 2.99824 13.4756 3.13707C12.9806 2.6346 12.326 2.30191 11.6131 2.19042C10.9003 2.07894 10.1688 2.19488 9.53183 2.52032C8.89486 2.84575 8.38787 3.36255 8.08923 3.99082C7.7906 4.6191 7.71695 5.32384 7.87969 5.9961C6.575 5.93356 5.29862 5.60982 4.13332 5.04587C2.96802 4.48191 1.9398 3.69033 1.11531 2.72245C0.696266 3.41257 0.568038 4.2292 0.756687 5.00638C0.945337 5.78356 1.43671 6.46297 2.13094 6.90653C1.60975 6.89072 1.09998 6.75668 0.64375 6.51549V6.55429C0.643283 7.27852 0.905399 7.98055 1.38554 8.54105C1.86568 9.10155 2.53422 9.48593 3.2775 9.62885C2.7947 9.75502 2.28799 9.77341 1.79656 9.68258C2.0063 10.3054 2.41438 10.8502 2.96385 11.2408C3.51331 11.6314 4.17675 11.8485 4.86156 11.8616C3.69895 12.734 2.26278 13.2071 0.784375 13.2049C0.522191 13.2045 0.260266 13.1891 0 13.1589C1.5019 14.0793 3.24902 14.5681 5.03344 14.5672Z" fill="white"/>
</g>
<defs>
<clipPath id="clip0_1_1263">
<rect width="16" height="15.2832" fill="white" transform="translate(0 0.716797)"/>
</clipPath>
</defs>
</svg>
