<svg width="17" height="16" viewBox="0 0 17 16" fill="none" xmlns="http://www.w3.org/2000/svg">
<g clip-path="url(#clip0_1_1270)">
<path d="M15.1477 0.716797H1.51328C0.860156 0.716797 0.332031 1.20932 0.332031 1.81826V14.8955C0.332031 15.5045 0.860156 16 1.51328 16H15.1477C15.8008 16 16.332 15.5045 16.332 14.8985V1.81826C16.332 1.20932 15.8008 0.716797 15.1477 0.716797ZM5.07891 13.7404H2.70391V6.44501H5.07891V13.7404ZM3.89141 5.45101C3.12891 5.45101 2.51328 4.86296 2.51328 4.13761C2.51328 3.41225 3.12891 2.82421 3.89141 2.82421C4.65078 2.82421 5.26641 3.41225 5.26641 4.13761C5.26641 4.85998 4.65078 5.45101 3.89141 5.45101ZM13.9664 13.7404H11.5945V10.1942C11.5945 9.34942 11.5789 8.25989 10.3602 8.25989C9.12578 8.25989 8.93828 9.18226 8.93828 10.1345V13.7404H6.56953V6.44501H8.84453V7.442H8.87578C9.19141 6.86888 9.96641 6.26293 11.1195 6.26293C13.5227 6.26293 13.9664 7.77334 13.9664 9.73747V13.7404Z" fill="white"/>
</g>
<defs>
<clipPath id="clip0_1_1270">
<rect width="16" height="15.2832" fill="white" transform="translate(0.332031 0.716797)"/>
</clipPath>
</defs>
</svg>
