<svg width="120" height="13" viewBox="0 0 120 13" fill="none" xmlns="http://www.w3.org/2000/svg">
<path d="M6.304 1.16344C5.216 1.16344 4.25067 1.40344 3.408 1.88344C2.56533 2.36344 1.90933 3.03544 1.44 3.89944C0.970667 4.76344 0.736 5.74477 0.736 6.84344C0.736 7.9421 0.970667 8.92877 1.44 9.80344C1.90933 10.6674 2.56533 11.3448 3.408 11.8354C4.25067 12.3154 5.216 12.5554 6.304 12.5554C7.392 12.5554 8.35733 12.3154 9.2 11.8354C10.0427 11.3448 10.6987 10.6674 11.168 9.80344C11.6373 8.93944 11.872 7.95277 11.872 6.84344C11.872 5.74477 11.6373 4.76344 11.168 3.89944C10.6987 3.03544 10.0427 2.36344 9.2 1.88344C8.35733 1.40344 7.392 1.16344 6.304 1.16344ZM6.304 1.80344C7.296 1.80344 8.16 2.01677 8.896 2.44344C9.632 2.85944 10.1973 3.45144 10.592 4.21944C10.9867 4.97677 11.184 5.85144 11.184 6.84344C11.184 7.82477 10.9867 8.69944 10.592 9.46744C10.1973 10.2354 9.62667 10.8381 8.88 11.2754C8.144 11.7021 7.28533 11.9154 6.304 11.9154C5.32267 11.9154 4.45867 11.7021 3.712 11.2754C2.976 10.8381 2.41067 10.2354 2.016 9.46744C1.62133 8.69944 1.424 7.82477 1.424 6.84344C1.424 5.85144 1.62133 4.97677 2.016 4.21944C2.41067 3.45144 2.976 2.85944 3.712 2.44344C4.448 2.01677 5.312 1.80344 6.304 1.80344ZM6.368 3.17944C7.17867 3.17944 7.888 3.41944 8.496 3.89944C9.11467 4.36877 9.50933 5.0141 9.68 5.83544H8.128C7.98933 5.3981 7.75467 5.05677 7.424 4.81144C7.09333 4.55544 6.71467 4.42744 6.288 4.42744C5.72267 4.42744 5.248 4.64077 4.864 5.06744C4.49067 5.48344 4.304 6.08077 4.304 6.85944C4.304 7.62744 4.49067 8.22477 4.864 8.65144C5.248 9.06744 5.72267 9.27544 6.288 9.27544C6.71467 9.27544 7.09333 9.15277 7.424 8.90744C7.75467 8.6621 7.98933 8.31544 8.128 7.86744H9.68C9.50933 8.69944 9.11467 9.35544 8.496 9.83544C7.888 10.3048 7.17867 10.5394 6.368 10.5394C5.70667 10.5394 5.10933 10.3954 4.576 10.1074C4.04267 9.80877 3.62133 9.3821 3.312 8.82744C3.00267 8.27277 2.848 7.61144 2.848 6.84344C2.848 6.0861 3.00267 5.4301 3.312 4.87544C3.62133 4.32077 4.04267 3.89944 4.576 3.61144C5.10933 3.32344 5.70667 3.17944 6.368 3.17944ZM13.2494 11.0994C14.9774 9.91544 16.3587 8.7581 17.3934 7.62744C18.4387 6.4861 18.9614 5.4301 18.9614 4.45944C18.9614 3.88344 18.8174 3.42477 18.5294 3.08344C18.252 2.7421 17.7987 2.57144 17.1694 2.57144C16.5187 2.57144 16.028 2.78477 15.6974 3.21144C15.3667 3.62744 15.18 4.22477 15.1374 5.00344H13.3614C13.436 3.71277 13.8307 2.7261 14.5454 2.04344C15.2707 1.36077 16.1934 1.01944 17.3134 1.01944C18.412 1.01944 19.2707 1.31277 19.8894 1.89944C20.5187 2.47544 20.8334 3.27544 20.8334 4.29944C20.8334 5.12077 20.5774 5.95277 20.0654 6.79544C19.564 7.6381 18.924 8.41677 18.1454 9.13144C17.3667 9.83544 16.5614 10.4434 15.7294 10.9554H21.0894V12.4434H13.2494V11.0994ZM22.5195 6.79544C22.5195 8.5981 22.8395 10.0114 23.4795 11.0354C24.1195 12.0488 25.1862 12.5554 26.6795 12.5554C28.1728 12.5554 29.2395 12.0434 29.8795 11.0194C30.5195 9.99544 30.8395 8.58744 30.8395 6.79544C30.8395 5.0141 30.5195 3.61677 29.8795 2.60344C29.2395 1.57944 28.1728 1.06744 26.6795 1.06744C25.1862 1.06744 24.1195 1.5741 23.4795 2.58744C22.8395 3.60077 22.5195 5.00344 22.5195 6.79544ZM29.0155 6.79544C29.0155 8.09677 28.8555 9.0941 28.5355 9.78744C28.2155 10.4808 27.5968 10.8274 26.6795 10.8274C25.7515 10.8274 25.1275 10.4808 24.8075 9.78744C24.4875 9.0941 24.3275 8.09677 24.3275 6.79544C24.3275 5.50477 24.4875 4.5181 24.8075 3.83544C25.1275 3.15277 25.7515 2.81144 26.6795 2.81144C27.5968 2.81144 28.2155 3.1581 28.5355 3.85144C28.8555 4.5341 29.0155 5.51544 29.0155 6.79544ZM32.2963 11.0994C34.0243 9.91544 35.4056 8.7581 36.4403 7.62744C37.4856 6.4861 38.0083 5.4301 38.0083 4.45944C38.0083 3.88344 37.8643 3.42477 37.5763 3.08344C37.2989 2.7421 36.8456 2.57144 36.2163 2.57144C35.5656 2.57144 35.0749 2.78477 34.7443 3.21144C34.4136 3.62744 34.2269 4.22477 34.1843 5.00344H32.4083C32.4829 3.71277 32.8776 2.7261 33.5923 2.04344C34.3176 1.36077 35.2403 1.01944 36.3602 1.01944C37.4589 1.01944 38.3176 1.31277 38.9363 1.89944C39.5656 2.47544 39.8802 3.27544 39.8802 4.29944C39.8802 5.12077 39.6243 5.95277 39.1123 6.79544C38.6109 7.6381 37.9709 8.41677 37.1923 9.13144C36.4136 9.83544 35.6083 10.4434 34.7763 10.9554H40.1363V12.4434H32.2963V11.0994ZM40.9424 2.93944V1.22744H44.5584V12.5234H42.6384V2.93944H40.9424ZM57.1666 1.22744V2.69944H52.3186V6.20344H56.3186V7.61144H52.3186V12.5234H50.4946V1.22744H57.1666ZM58.5355 1.14744C58.5355 0.838104 58.6422 0.582104 58.8555 0.379436C59.0688 0.17677 59.3515 0.0754366 59.7035 0.0754366C60.0555 0.0754366 60.3382 0.17677 60.5515 0.379436C60.7755 0.582104 60.8875 0.838104 60.8875 1.14744C60.8875 1.45677 60.7755 1.70744 60.5515 1.89944C60.3382 2.09144 60.0555 2.18744 59.7035 2.18744C59.3515 2.18744 59.0688 2.09144 58.8555 1.89944C58.6422 1.70744 58.5355 1.45677 58.5355 1.14744ZM60.6155 3.70744V12.5234H58.7915V3.70744H60.6155ZM67.7508 3.56344C68.7748 3.56344 69.5961 3.8941 70.2148 4.55544C70.8334 5.21677 71.1428 6.16077 71.1428 7.38744V12.5234H69.3188V7.57944C69.3188 6.7901 69.1161 6.1821 68.7108 5.75544C68.3054 5.3181 67.7508 5.09944 67.0468 5.09944C66.3214 5.09944 65.7401 5.3341 65.3028 5.80344C64.8654 6.2621 64.6468 6.93944 64.6468 7.83544V12.5234H62.8228V3.70744H64.6468V5.64344C64.8814 4.9821 65.2761 4.4701 65.8307 4.10744C66.3854 3.74477 67.0254 3.56344 67.7508 3.56344ZM76.1719 3.59544C77.2065 3.59544 78.0332 3.8621 78.6519 4.39544C79.2812 4.9181 79.6652 5.6221 79.8039 6.50744H78.0759C78.0012 6.02744 77.7932 5.64344 77.4519 5.35544C77.1212 5.05677 76.6785 4.90744 76.1239 4.90744C75.6652 4.90744 75.3079 5.01944 75.0519 5.24344C74.8065 5.45677 74.6839 5.7501 74.6839 6.12344C74.6839 6.40077 74.7745 6.62477 74.9559 6.79544C75.1372 6.9661 75.3612 7.09944 75.6279 7.19544C75.9052 7.29144 76.2945 7.3981 76.7959 7.51544C77.4572 7.66477 77.9905 7.81944 78.3959 7.97944C78.8119 8.13944 79.1639 8.39544 79.4519 8.74744C79.7505 9.08877 79.8999 9.5581 79.8999 10.1554C79.8999 10.8914 79.6172 11.4888 79.0519 11.9474C78.4972 12.4061 77.7452 12.6354 76.7959 12.6354C75.6972 12.6354 74.8065 12.3794 74.1239 11.8674C73.4519 11.3554 73.0465 10.6408 72.9079 9.72344H74.6839C74.7372 10.2034 74.9505 10.5928 75.3239 10.8914C75.6972 11.1901 76.1879 11.3394 76.7959 11.3394C77.2332 11.3394 77.5745 11.2274 77.8199 11.0034C78.0759 10.7688 78.2039 10.4754 78.2039 10.1234C78.2039 9.8141 78.1079 9.56877 77.9159 9.38744C77.7239 9.2061 77.4839 9.06744 77.1959 8.97144C76.9079 8.86477 76.5132 8.7581 76.0119 8.65144C75.3719 8.5021 74.8492 8.35277 74.4439 8.20344C74.0492 8.0541 73.7079 7.8141 73.4199 7.48344C73.1425 7.1421 73.0039 6.68344 73.0039 6.10744C73.0039 5.36077 73.2812 4.7581 73.8359 4.29944C74.4012 3.8301 75.1799 3.59544 76.1719 3.59544ZM94.081 3.70744L91.633 12.5234H89.617L87.441 5.70744L85.233 12.5234H83.233L80.785 3.70744H82.625L84.305 10.8434L86.513 3.70744H88.433L90.673 10.8434L92.353 3.70744H94.081ZM103.515 7.69144C103.515 7.9901 103.493 8.25144 103.451 8.47544H96.6668C96.6988 9.3821 96.9494 10.0541 97.4188 10.4914C97.8881 10.9288 98.4694 11.1474 99.1628 11.1474C99.7708 11.1474 100.283 10.9928 100.699 10.6834C101.125 10.3741 101.387 9.96344 101.483 9.45144H103.435C103.317 10.0701 103.072 10.6194 102.699 11.0994C102.325 11.5794 101.84 11.9581 101.243 12.2354C100.645 12.5021 99.9788 12.6354 99.2428 12.6354C98.3894 12.6354 97.6321 12.4541 96.9708 12.0914C96.3201 11.7288 95.8081 11.2061 95.4348 10.5234C95.0614 9.84077 94.8748 9.03544 94.8748 8.10744C94.8748 7.1901 95.0614 6.3901 95.4348 5.70744C95.8081 5.02477 96.3201 4.5021 96.9708 4.13944C97.6321 3.77677 98.3894 3.59544 99.2428 3.59544C100.107 3.59544 100.859 3.77677 101.499 4.13944C102.149 4.49144 102.645 4.9821 102.987 5.61144C103.339 6.2301 103.515 6.92344 103.515 7.69144ZM101.675 7.64344C101.696 7.06744 101.595 6.58744 101.371 6.20344C101.157 5.80877 100.859 5.52077 100.475 5.33944C100.101 5.14744 99.6908 5.05144 99.2428 5.05144C98.5281 5.05144 97.9308 5.2701 97.4508 5.70744C96.9708 6.14477 96.7094 6.7901 96.6668 7.64344H101.675ZM113.468 7.69144C113.468 7.9901 113.447 8.25144 113.404 8.47544H106.62C106.652 9.3821 106.903 10.0541 107.372 10.4914C107.841 10.9288 108.423 11.1474 109.116 11.1474C109.724 11.1474 110.236 10.9928 110.652 10.6834C111.079 10.3741 111.34 9.96344 111.436 9.45144H113.388C113.271 10.0701 113.025 10.6194 112.652 11.0994C112.279 11.5794 111.793 11.9581 111.196 12.2354C110.599 12.5021 109.932 12.6354 109.196 12.6354C108.343 12.6354 107.585 12.4541 106.924 12.0914C106.273 11.7288 105.761 11.2061 105.388 10.5234C105.015 9.84077 104.828 9.03544 104.828 8.10744C104.828 7.1901 105.015 6.3901 105.388 5.70744C105.761 5.02477 106.273 4.5021 106.924 4.13944C107.585 3.77677 108.343 3.59544 109.196 3.59544C110.06 3.59544 110.812 3.77677 111.452 4.13944C112.103 4.49144 112.599 4.9821 112.94 5.61144C113.292 6.2301 113.468 6.92344 113.468 7.69144ZM111.628 7.64344C111.649 7.06744 111.548 6.58744 111.324 6.20344C111.111 5.80877 110.812 5.52077 110.428 5.33944C110.055 5.14744 109.644 5.05144 109.196 5.05144C108.481 5.05144 107.884 5.2701 107.404 5.70744C106.924 6.14477 106.663 6.7901 106.62 7.64344H111.628ZM119.661 10.9394V12.5234H118.541C117.602 12.5234 116.888 12.2994 116.397 11.8514C115.917 11.3928 115.677 10.6354 115.677 9.57944V5.25944H114.413V3.70744H115.677V1.51544H117.517V3.70744H119.645V5.25944H117.517V9.61144C117.517 10.1128 117.608 10.4594 117.789 10.6514C117.981 10.8434 118.312 10.9394 118.781 10.9394H119.661Z" fill="black"/>
</svg>
